<svg xmlns="http://www.w3.org/2000/svg" viewBox="0 0 253 64" width="253" height="64"><circle cx="32" cy="32" r="32" fill="#082231"/>
<circle cx="41" cy="17.5" r="5" fill="#ffc56b"/>
<path d="M9 41 L12.5 34.5 L15.5 28.5 L17.5 30 L20.5 25.4 L40.5 24.9 L43.5 29.5 L46.5 31.5 Q49.3 27.2 52 30.8 L56 41 Z" fill="#0e8ba0"/>
<path d="M20.5 25.4 L40.5 24.9" stroke="#7fd6e3" stroke-width="1.8" stroke-linecap="round"/>
<path d="M6 40.5 Q11 37 16 40.5 T26 40.5 T36 40.5 T46 40.5 T58 40.5 L58 46 Q46 62 32 62 Q18 62 6 46 Z" fill="#0e8ba0" opacity=".55"/>
<path d="M6 40.5 Q11 37 16 40.5 T26 40.5 T36 40.5 T46 40.5 T58 40.5" fill="none" stroke="#ffffff" stroke-width="2.6" stroke-linecap="round"/>
<path d="M12 49 Q17 46 22 49 T32 49 T42 49 T52 49" fill="none" stroke="#7fd6e3" stroke-width="2.2" stroke-linecap="round"/><path d="M101.154 31.438Q101.154 32.713 100.47399999999999 33.988Q99.794 35.263 98.51050000000001 36.3255Q97.227 37.388 95.4165 38.025499999999994Q93.606 38.663 91.328 38.663Q87.588 38.663 84.8595 37.073499999999996Q82.131 35.484 80.652 32.679Q79.173 29.874 79.173 26.235999999999997Q79.173 23.499 80.057 21.186999999999998Q80.941 18.875 82.5305 17.1665Q84.12 15.457999999999998 86.245 14.514499999999998Q88.37 13.570999999999998 90.869 13.570999999999998Q92.501 13.570999999999998 93.5295 13.868499999999997Q94.55799999999999 14.165999999999997 95.16149999999999 14.480499999999997Q95.765 14.794999999999998 96.13900000000001 14.794999999999998Q96.598 14.794999999999998 96.87 14.514499999999998Q97.142 14.233999999999998 97.431 13.961999999999998Q97.72 13.689999999999998 98.179 13.689999999999998Q98.553 13.689999999999998 98.791 13.919499999999998Q99.029 14.148999999999997 99.182 14.692999999999998L100.95 20.66Q101.086 21.102 100.848 21.459Q100.61 21.816 100.15100000000001 21.935Q99.675 22.037 99.28399999999999 21.85Q98.893 21.663 98.672 21.169999999999998Q97.771 19.13 96.69149999999999 17.957Q95.612 16.784 94.405 16.290999999999997Q93.19800000000001 15.797999999999998 91.855 15.797999999999998Q90.47800000000001 15.797999999999998 89.356 16.444Q88.234 17.09 87.435 18.2885Q86.636 19.487 86.211 21.1785Q85.786 22.869999999999997 85.786 24.978Q85.786 28.326999999999998 86.7465 30.5965Q87.707 32.866 89.3985 34.022Q91.09 35.178 93.283 35.178Q95.306 35.178 96.8785 34.175Q98.451 33.172 99.403 31.302Q99.641 30.826 99.92150000000001 30.6815Q100.202 30.537 100.542 30.605Q100.86500000000001 30.656 101.0095 30.868499999999997Q101.154 31.081 101.154 31.438ZM113.666 35.756V35.399L113.241 35.348V24.774Q113.241 23.855999999999998 112.765 23.329Q112.289 22.802 111.439 22.802Q110.708 22.802 110.27449999999999 23.125Q109.841 23.448 109.841 23.941V25.624Q109.841 26.848 109.008 27.511Q108.175 28.174 106.662 28.174Q105.37 28.174 104.71549999999999 27.604499999999998Q104.06099999999999 27.034999999999997 104.06099999999999 25.997999999999998Q104.06099999999999 24.909999999999997 105.013 23.839Q105.965 22.768 107.8435 22.054000000000002Q109.722 21.34 112.527 21.34Q115.876 21.34 117.51650000000001 22.631999999999998Q119.157 23.924 119.157 26.151V34.634Q119.157 35.042 119.3355 35.263000000000005Q119.514 35.484 119.854 35.484Q120.194 35.484 120.3725 35.314Q120.551 35.144 120.70400000000001 34.974Q120.806 34.872 120.9165 34.787Q121.027 34.702 121.18 34.702Q121.435 34.702 121.5455 34.8805Q121.656 35.059 121.656 35.348Q121.656 36.011 121.1885 36.725Q120.721 37.439 119.786 37.9405Q118.851 38.442 117.457 38.442Q115.757 38.442 114.7115 37.7025Q113.666 36.963 113.666 35.756ZM103.398 34.413Q103.398 32.186 105.3955 30.86Q107.393 29.534 110.997 29.534Q112.051 29.534 112.86699999999999 29.6955Q113.68299999999999 29.857 114.244 30.146L113.768 31.421Q113.309 31.183 112.85 31.064Q112.391 30.945 111.847 30.945Q110.725 30.945 110.0875 31.5825Q109.45 32.22 109.45 33.393Q109.45 34.583 110.02799999999999 35.2035Q110.606 35.824 111.524 35.824Q112.221 35.824 112.867 35.501Q113.513 35.178 113.904 34.650999999999996L114.295 35.807Q113.411 37.065 111.8555 37.7535Q110.3 38.442 108.532 38.442Q106.237 38.442 104.8175 37.311499999999995Q103.398 36.181 103.398 34.413ZM130.411 22.649V24.366L130.666 24.893V42.811Q130.666 43.406 130.7935 43.6695Q130.921 43.933 131.193 44.035L131.839 44.205Q132.196 44.341 132.35750000000002 44.562Q132.519 44.783 132.519 45.072Q132.519 45.463 132.25549999999998 45.692499999999995Q131.992 45.922 131.414 45.922H124.053Q123.492 45.922 123.2285 45.692499999999995Q122.965 45.463 122.965 45.072Q122.965 44.783 123.1265 44.5705Q123.288 44.358000000000004 123.628 44.205L124.155 44.035Q124.444 43.933 124.563 43.6695Q124.682 43.406 124.682 42.811V25.964Q124.682 25.488 124.54599999999999 25.2755Q124.41 25.063 124.121 24.994999999999997L123.492 24.909999999999997Q123.152 24.808 123.0075 24.6295Q122.863 24.451 122.863 24.162Q122.863 23.822 123.05 23.634999999999998Q123.237 23.448 123.764 23.226999999999997L127.011 21.901Q127.725 21.595 128.1925 21.476Q128.66 21.357 129.034 21.357Q129.731 21.357 130.071 21.7225Q130.411 22.088 130.411 22.649ZM129.561 27.119999999999997 128.592 26.066Q129.986 23.839 131.7625 22.581Q133.539 21.323 135.766 21.323Q137.78900000000002 21.323 139.37 22.3515Q140.951 23.38 141.869 25.198999999999998Q142.787 27.018 142.787 29.381Q142.787 32.118 141.68200000000002 34.158Q140.577 36.198 138.673 37.32Q136.769 38.442 134.372 38.442Q132.349 38.442 130.802 37.541Q129.255 36.64 128.201 34.838L129.68 33.733Q130.496 34.991 131.363 35.569Q132.23 36.147 133.233 36.147Q134.219 36.147 134.9755 35.5095Q135.732 34.872 136.1655 33.5205Q136.599 32.169 136.599 30.009999999999998Q136.599 28.003999999999998 136.1655 26.737499999999997Q135.732 25.470999999999997 134.9925 24.8675Q134.25300000000001 24.264 133.284 24.264Q132.213 24.264 131.2865 24.9525Q130.36 25.641 129.561 27.119999999999997ZM161.334 27.834Q161.334 28.871 160.756 29.432Q160.178 29.993 159.107 29.993H148.754V28.479999999999997H154.5Q155.384 28.479999999999997 155.384 27.647Q155.384 25.436999999999998 154.72949999999997 24.391499999999997Q154.075 23.345999999999997 152.987 23.345999999999997Q152.154 23.345999999999997 151.5165 23.889999999999997Q150.879 24.433999999999997 150.505 25.496499999999997Q150.131 26.558999999999997 150.131 28.106Q150.131 31.302 151.6015 32.849000000000004Q153.072 34.396 155.554 34.396Q156.88 34.396 157.9085 33.954Q158.93699999999998 33.512 159.685 32.56Q160.076 32.186 160.2885 32.05Q160.501 31.914 160.70499999999998 31.914Q161.011 31.914 161.147 32.203Q161.283 32.492 161.283 32.9Q161.249 34.379 160.26299999999998 35.6455Q159.277 36.912 157.55149999999998 37.677Q155.826 38.442 153.582 38.442Q151.04899999999998 38.442 149.06849999999997 37.422Q147.088 36.402 145.9405 34.5745Q144.793 32.747 144.793 30.282Q144.793 27.613 145.864 25.5985Q146.935 23.584 148.9495 22.4535Q150.964 21.323 153.786 21.323Q156.23399999999998 21.323 157.91699999999997 22.1645Q159.6 23.006 160.46699999999998 24.468Q161.334 25.93 161.334 27.834ZM193.413 23.006Q193.413 25.232999999999997 192.257 26.856499999999997Q191.101 28.479999999999997 188.9505 29.381Q186.8 30.282 183.859 30.282Q181.904 30.282 180.3485 29.857Q178.793 29.432 177.586 28.683999999999997L177.824 26.899Q178.47 27.341 179.11599999999999 27.63Q179.762 27.918999999999997 180.493 28.055Q181.224 28.191 182.04 28.191Q183.451 28.191 184.5815 27.5875Q185.712 26.984 186.375 25.7855Q187.038 24.587 187.038 22.836Q187.038 20.796 186.27300000000002 19.317Q185.508 17.837999999999997 184.16500000000002 17.030499999999996Q182.822 16.223 181.037 16.223H180.153V34.736Q180.153 35.127 180.357 35.4075Q180.561 35.688 181.02 35.772999999999996L182.261 35.977Q182.754 36.079 182.958 36.325500000000005Q183.162 36.572 183.162 37.048Q183.162 37.473 182.86450000000002 37.7365Q182.567 38.0 181.938 38.0H172.367Q171.738 38.0 171.43200000000002 37.7365Q171.126 37.473 171.126 37.048Q171.126 36.283 171.925 35.994L172.741 35.772999999999996Q173.166 35.62 173.3785 35.3735Q173.591 35.127 173.591 34.736V17.464Q173.591 17.072999999999997 173.3785 16.826499999999996Q173.166 16.58 172.741 16.427L171.925 16.206Q171.126 15.916999999999998 171.126 15.151999999999997Q171.126 14.709999999999997 171.43200000000002 14.454999999999998Q171.738 14.2 172.35 14.2H181.224Q185.1 14.2 187.82850000000002 15.330499999999999Q190.55700000000002 16.461 191.985 18.45Q193.413 20.439 193.413 23.006ZM204.803 21.323Q207.55700000000002 21.323 209.63100000000003 22.411Q211.705 23.499 212.85250000000002 25.436999999999998Q214.0 27.375 214.0 29.942Q214.0 32.339 212.8015 34.2685Q211.603 36.198 209.4865 37.32Q207.37 38.442 204.58200000000002 38.442Q201.845 38.442 199.77100000000002 37.3455Q197.697 36.249 196.541 34.311Q195.38500000000002 32.373 195.38500000000002 29.84Q195.38500000000002 27.392 196.58350000000002 25.470999999999997Q197.782 23.549999999999997 199.8985 22.4365Q202.01500000000001 21.323 204.803 21.323ZM206.02700000000002 36.351Q206.928 36.181 207.45499999999998 35.364999999999995Q207.982 34.549 208.0585 33.053Q208.13500000000002 31.557 207.693 29.347Q207.268 27.188 206.622 25.811Q205.976 24.433999999999997 205.143 23.830499999999997Q204.31 23.226999999999997 203.375 23.414Q202.47400000000002 23.584 201.947 24.4Q201.42000000000002 25.216 201.35200000000003 26.712Q201.28400000000002 28.208 201.709 30.418Q202.11700000000002 32.56 202.7715 33.9455Q203.42600000000002 35.331 204.25050000000002 35.926Q205.07500000000002 36.521 206.02700000000002 36.351ZM225.492 21.323Q228.246 21.323 230.32 22.411Q232.394 23.499 233.54149999999998 25.436999999999998Q234.689 27.375 234.689 29.942Q234.689 32.339 233.4905 34.2685Q232.292 36.198 230.1755 37.32Q228.059 38.442 225.27100000000002 38.442Q222.534 38.442 220.45999999999998 37.3455Q218.386 36.249 217.23000000000002 34.311Q216.074 32.373 216.074 29.84Q216.074 27.392 217.2725 25.470999999999997Q218.471 23.549999999999997 220.5875 22.4365Q222.704 21.323 225.492 21.323ZM226.716 36.351Q227.617 36.181 228.144 35.364999999999995Q228.671 34.549 228.7475 33.053Q228.824 31.557 228.382 29.347Q227.957 27.188 227.31099999999998 25.811Q226.665 24.433999999999997 225.832 23.830499999999997Q224.999 23.226999999999997 224.064 23.414Q223.163 23.584 222.63600000000002 24.4Q222.109 25.216 222.041 26.712Q221.973 28.208 222.398 30.418Q222.806 32.56 223.46050000000002 33.9455Q224.115 35.331 224.9395 35.926Q225.764 36.521 226.716 36.351ZM244.617 13.825999999999997V34.889Q244.617 35.484 244.736 35.7475Q244.855 36.011 245.144 36.113L245.654 36.283Q246.011 36.419 246.1725 36.64Q246.334 36.861 246.334 37.15Q246.334 37.541 246.07049999999998 37.7705Q245.807 38.0 245.22899999999998 38.0H238.004Q237.426 38.0 237.1625 37.7705Q236.899 37.541 236.899 37.15Q236.899 36.861 237.0605 36.64Q237.222 36.419 237.579 36.283L238.106 36.113Q238.378 36.011 238.50549999999998 35.7475Q238.63299999999998 35.484 238.63299999999998 34.889V17.124Q238.63299999999998 16.648 238.49699999999999 16.444Q238.361 16.24 238.072 16.171999999999997L237.426 16.069999999999997Q237.103 15.985 236.95 15.797999999999998Q236.797 15.610999999999997 236.797 15.322Q236.797 14.982 236.9925 14.777999999999999Q237.188 14.573999999999998 237.715 14.386999999999997L241.21699999999998 13.061Q241.999 12.771999999999998 242.4495 12.652999999999999Q242.9 12.533999999999999 243.257 12.533999999999999Q243.93699999999998 12.533999999999999 244.277 12.890999999999998Q244.617 13.247999999999998 244.617 13.825999999999997Z" fill="#082231"/><path d="M83.14453125 58.1123046875Q81.903564453125 58.1123046875 81.1707763671875 57.4412841796875Q80.43798828125 56.770263671875 80.43798828125 55.529296875V55.052001953125H81.937255859375V55.54052734375Q81.937255859375 56.197509765625 82.2657470703125 56.5372314453125Q82.59423828125 56.876953125 83.14453125 56.876953125Q83.689208984375 56.876953125 84.014892578125 56.5372314453125Q84.340576171875 56.197509765625 84.340576171875 55.54052734375V49.63330078125H85.82861328125V55.523681640625Q85.82861328125 56.7646484375 85.1014404296875 57.4384765625Q84.374267578125 58.1123046875 83.14453125 58.1123046875ZM95.290087890625 58.1123046875Q94.189501953125 58.1123046875 93.319140625 57.601318359375Q92.448779296875 57.09033203125 91.9462158203125 56.130126953125Q91.44365234375 55.169921875 91.44365234375 53.822265625Q91.44365234375 52.468994140625 91.9462158203125 51.5059814453125Q92.448779296875 50.54296875 93.319140625 50.031982421875Q94.189501953125 49.52099609375 95.290087890625 49.52099609375Q96.38505859375 49.52099609375 97.2526123046875 50.031982421875Q98.120166015625 50.54296875 98.6227294921875 51.5059814453125Q99.12529296875 52.468994140625 99.12529296875 53.822265625Q99.12529296875 55.169921875 98.6227294921875 56.1329345703125Q98.120166015625 57.095947265625 97.2526123046875 57.6041259765625Q96.38505859375 58.1123046875 95.290087890625 58.1123046875ZM95.290087890625 56.770263671875Q95.96953125 56.770263671875 96.4945556640625 56.4305419921875Q97.019580078125 56.0908203125 97.3171875 55.4310302734375Q97.614794921875 54.771240234375 97.614794921875 53.822265625Q97.614794921875 52.862060546875 97.3171875 52.2022705078125Q97.019580078125 51.54248046875 96.4945556640625 51.2027587890625Q95.96953125 50.863037109375 95.290087890625 50.863037109375Q94.605029296875 50.863037109375 94.077197265625 51.20556640625Q93.549365234375 51.548095703125 93.2489501953125 52.2078857421875Q92.94853515625 52.86767578125 92.94853515625 53.822265625Q92.94853515625 54.771240234375 93.2489501953125 55.42822265625Q93.549365234375 56.085205078125 94.077197265625 56.427734375Q94.605029296875 56.770263671875 95.290087890625 56.770263671875ZM108.137548828125 58.12353515625Q107.115576171875 58.12353515625 106.351904296875 57.7388916015625Q105.588232421875 57.354248046875 105.16708984375 56.6719970703125Q104.745947265625 55.98974609375 104.745947265625 55.096923828125V49.63330078125H106.24521484375V54.973388671875Q106.24521484375 55.49560546875 106.4782470703125 55.905517578125Q106.711279296875 56.3154296875 107.1352294921875 56.5484619140625Q107.5591796875 56.781494140625 108.137548828125 56.781494140625Q108.71591796875 56.781494140625 109.1398681640625 56.5484619140625Q109.563818359375 56.3154296875 109.7968505859375 55.905517578125Q110.0298828125 55.49560546875 110.0298828125 54.973388671875V49.63330078125H111.529150390625V55.096923828125Q111.529150390625 55.98974609375 111.1052001953125 56.6719970703125Q110.68125 57.354248046875 109.9203857421875 57.7388916015625Q109.159521484375 58.12353515625 108.137548828125 58.12353515625ZM117.40810546875001 58.0V49.63330078125H120.53579101562501Q121.49599609375001 49.63330078125 122.15297851562501 49.97021484375Q122.80996093750001 50.30712890625 123.14687500000001 50.9107666015625Q123.48378906250001 51.514404296875 123.48378906250001 52.311767578125Q123.48378906250001 53.109130859375 123.14406738281251 53.69873046875Q122.80434570312501 54.288330078125 122.14174804687501 54.6083984375Q121.47915039062501 54.928466796875 120.51333007812501 54.928466796875H118.27846679687501V53.6875H120.31679687500001Q120.88393554687501 53.6875 121.24331054687501 53.5274658203125Q121.60268554687501 53.367431640625 121.77675781250001 53.05859375Q121.95083007812501 52.749755859375 121.95083007812501 52.311767578125Q121.95083007812501 51.862548828125 121.77675781250001 51.5452880859375Q121.60268554687501 51.22802734375 121.24050292968751 51.0595703125Q120.87832031250001 50.89111328125 120.30556640625001 50.89111328125H118.90737304687501V58.0ZM122.11367187500001 58.0 120.08095703125001 54.2041015625H121.72060546875001L123.79262695312501 58.0ZM129.11005859375 58.0V49.63330078125H130.805859375L133.697705078125 54.243408203125Q133.877392578125 54.52978515625 134.079541015625 54.8919677734375Q134.281689453125 55.254150390625 134.50068359375 55.7005615234375Q134.719677734375 56.14697265625 134.933056640625 56.691650390625H134.764599609375Q134.72529296875 56.219970703125 134.6944091796875 55.7230224609375Q134.663525390625 55.22607421875 134.6494873046875 54.7796630859375Q134.63544921875 54.333251953125 134.63544921875 54.0244140625V49.63330078125H136.157177734375V58.0H134.45576171875L131.844677734375 53.850341796875Q131.597607421875 53.45166015625 131.37861328125 53.064208984375Q131.159619140625 52.6767578125 130.90693359375 52.188232421875Q130.654248046875 51.69970703125 130.294873046875 51.009033203125H130.508251953125Q130.541943359375 51.62109375 130.57001953125 52.1685791015625Q130.598095703125 52.716064453125 130.6177490234375 53.1484375Q130.63740234375 53.580810546875 130.63740234375 53.8447265625V58.0ZM141.480224609375 58.0 144.400146484375 49.63330078125H146.3037109375L149.291015625 58.0H147.645751953125L146.15771484375 53.65380859375Q145.938720703125 52.97998046875 145.702880859375 52.1292724609375Q145.467041015625 51.278564453125 145.1806640625 50.19482421875H145.4951171875Q145.21435546875 51.289794921875 144.9869384765625 52.1461181640625Q144.759521484375 53.00244140625 144.557373046875 53.65380859375L143.119873046875 58.0ZM143.181640625 55.927978515625V54.720703125H147.589599609375V55.927978515625ZM154.608447265625 58.0V49.63330078125H156.10771484375V56.736572265625H159.8025390625V58.0Z" fill="#0e8ba0"/></svg>